<svg width="18" height="20" viewBox="0 0 18 20" fill="none" xmlns="http://www.w3.org/2000/svg">
<path d="M5.05371 16.25H0.803711V0.75H16.3037V16.25H12.0537H11.7763L11.5656 16.4306L8.55371 19.0122L5.5418 16.4306L5.33115 16.25H5.05371Z" stroke="#323232" stroke-width="1.5"/>
<path d="M6.47971 5.11C6.61571 4.99 6.76371 4.876 6.92371 4.768C7.08771 4.66 7.26371 4.566 7.45171 4.486C7.63971 4.406 7.84371 4.344 8.06371 4.3C8.28371 4.252 8.52171 4.228 8.77771 4.228C9.12571 4.228 9.44171 4.276 9.72571 4.372C10.0137 4.468 10.2597 4.606 10.4637 4.786C10.6677 4.962 10.8257 5.176 10.9377 5.428C11.0497 5.68 11.1057 5.962 11.1057 6.274C11.1057 6.578 11.0617 6.842 10.9737 7.066C10.8857 7.286 10.7757 7.478 10.6437 7.642C10.5117 7.806 10.3657 7.948 10.2057 8.068C10.0497 8.188 9.90171 8.302 9.76171 8.41C9.62171 8.514 9.49971 8.618 9.39571 8.722C9.29571 8.822 9.23571 8.936 9.21571 9.064L9.07771 9.94H8.06371L7.96171 8.962C7.93771 8.774 7.96371 8.61 8.03971 8.47C8.11971 8.326 8.22371 8.196 8.35171 8.08C8.48371 7.96 8.62971 7.846 8.78971 7.738C8.94971 7.626 9.09971 7.506 9.23971 7.378C9.37971 7.246 9.49571 7.1 9.58771 6.94C9.68371 6.776 9.73171 6.582 9.73171 6.358C9.73171 6.214 9.70371 6.086 9.64771 5.974C9.59571 5.858 9.52171 5.76 9.42571 5.68C9.32971 5.596 9.21371 5.532 9.07771 5.488C8.94571 5.444 8.80171 5.422 8.64571 5.422C8.41771 5.422 8.22371 5.448 8.06371 5.5C7.90771 5.548 7.77371 5.604 7.66171 5.668C7.55371 5.728 7.46171 5.784 7.38571 5.836C7.30971 5.884 7.24171 5.908 7.18171 5.908C7.03771 5.908 6.93371 5.848 6.86971 5.728L6.47971 5.11ZM7.61371 12.184C7.61371 12.06 7.63571 11.942 7.67971 11.83C7.72771 11.718 7.79171 11.622 7.87171 11.542C7.95171 11.462 8.04771 11.398 8.15971 11.35C8.27171 11.302 8.39171 11.278 8.51971 11.278C8.64771 11.278 8.76571 11.302 8.87371 11.35C8.98571 11.398 9.08171 11.462 9.16171 11.542C9.24571 11.622 9.31171 11.718 9.35971 11.83C9.40771 11.942 9.43171 12.06 9.43171 12.184C9.43171 12.312 9.40771 12.432 9.35971 12.544C9.31171 12.652 9.24571 12.746 9.16171 12.826C9.08171 12.906 8.98571 12.968 8.87371 13.012C8.76571 13.06 8.64771 13.084 8.51971 13.084C8.39171 13.084 8.27171 13.06 8.15971 13.012C8.04771 12.968 7.95171 12.906 7.87171 12.826C7.79171 12.746 7.72771 12.652 7.67971 12.544C7.63571 12.432 7.61371 12.312 7.61371 12.184Z" fill="#323232"/>
</svg>
